<svg width="1440" height="1024" viewBox="0 0 1440 1024" fill="none" xmlns="http://www.w3.org/2000/svg">
<rect width="1440" height="1024" fill="#010101"/>
<rect width="1440" height="1024" fill="black"/>
<ellipse cx="719.622" cy="511.914" rx="469.622" ry="460.914" fill="white"/>
<path d="M348.397 520.109L1087.87 514.104" stroke="url(#paint0_linear_0_1)" stroke-width="4"/>
<path d="M719.259 518.943C897.126 214.489 948.303 200.814 1088.99 514.247" stroke="black" stroke-width="6" stroke-linecap="round"/>
<path d="M355.216 519.636C354.505 518.139 352.716 517.501 351.219 518.212C349.723 518.923 349.086 520.712 349.797 522.209L355.216 519.636ZM718.172 513.941C674.775 586.852 639.016 642.082 607.589 679.335C576.046 716.726 549.448 735.288 524.488 736.306C499.708 737.317 475.203 721.041 447.736 684.968C420.345 648.995 390.598 594.111 355.216 519.636L349.797 522.209C385.191 596.71 415.163 652.091 442.963 688.602C470.688 725.013 496.848 743.439 524.735 742.301C552.444 741.171 580.516 720.734 612.175 683.205C643.951 645.539 679.927 589.929 723.328 517.011L718.172 513.941Z" fill="black"/>
<path d="M368.075 513V488.5H371.68L389.39 508.555L389.04 508.87C388.923 508.217 388.83 507.517 388.76 506.77C388.69 506.023 388.62 505.242 388.55 504.425C388.503 503.585 388.457 502.733 388.41 501.87C388.387 500.983 388.363 500.097 388.34 499.21C388.34 498.323 388.34 497.437 388.34 496.55V488.5H392.12V513H388.445L370.98 493.68L371.155 493.19C371.225 494.053 371.295 494.87 371.365 495.64C371.435 496.387 371.493 497.11 371.54 497.81C371.61 498.487 371.668 499.117 371.715 499.7C371.762 500.283 371.797 500.843 371.82 501.38C371.843 501.893 371.855 502.372 371.855 502.815V513H368.075ZM402.255 513V488.5H420.42V492.14H406.035V509.36H420.42V513H402.255ZM404.18 502.255V498.615H418.495V502.255H404.18ZM435.404 513L426.899 488.5H430.994L435.999 503.305C436.162 503.748 436.314 504.25 436.454 504.81C436.617 505.347 436.769 505.895 436.909 506.455C437.072 507.015 437.212 507.552 437.329 508.065C437.445 508.555 437.562 508.998 437.679 509.395L436.384 509.36C436.664 508.45 436.92 507.633 437.154 506.91C437.41 506.187 437.655 505.533 437.889 504.95C438.145 504.343 438.379 503.783 438.589 503.27L443.034 492.735H446.569L450.909 503.235C451.189 503.865 451.445 504.518 451.679 505.195C451.935 505.848 452.18 506.502 452.414 507.155C452.647 507.808 452.834 508.438 452.974 509.045L451.784 509.29C451.9 508.777 452.005 508.322 452.099 507.925C452.192 507.528 452.285 507.143 452.379 506.77C452.495 506.397 452.612 506.035 452.729 505.685C452.845 505.312 452.974 504.915 453.114 504.495C453.254 504.075 453.405 503.62 453.569 503.13L458.854 488.5H462.914L453.814 513H451.189L444.364 497.04L444.889 497.18L438.134 513H435.404ZM483.978 513V488.5H487.758V509.36H501.968V513H483.978ZM510.399 513V488.5H528.564V492.14H514.179V509.36H528.564V513H510.399ZM512.324 502.255V498.615H526.639V502.255H512.324ZM535.078 513L545.928 488.5H550.093L560.908 513H556.813L549.743 497.04C549.58 496.737 549.393 496.328 549.183 495.815C548.996 495.302 548.786 494.765 548.553 494.205C548.343 493.622 548.133 493.062 547.923 492.525C547.736 491.965 547.573 491.487 547.433 491.09L548.413 491.055C548.226 491.545 548.028 492.058 547.818 492.595C547.631 493.132 547.433 493.68 547.223 494.24C547.013 494.777 546.803 495.302 546.593 495.815C546.383 496.305 546.185 496.76 545.998 497.18L538.998 513H535.078ZM539.838 507.12L541.273 503.48H554.328L555.378 507.12H539.838ZM568.197 513V488.5H580.587C581.987 488.5 583.259 488.838 584.402 489.515C585.569 490.168 586.49 491.067 587.167 492.21C587.867 493.353 588.217 494.625 588.217 496.025C588.217 497.472 587.855 498.778 587.132 499.945C586.409 501.112 585.44 502.057 584.227 502.78C583.014 503.48 581.672 503.83 580.202 503.83H571.977V513H568.197ZM571.977 500.19H579.992C580.762 500.19 581.474 500.003 582.127 499.63C582.78 499.233 583.294 498.72 583.667 498.09C584.064 497.46 584.262 496.772 584.262 496.025C584.262 495.302 584.064 494.648 583.667 494.065C583.294 493.482 582.78 493.015 582.127 492.665C581.474 492.315 580.762 492.14 579.992 492.14H571.977V500.19ZM610.477 513V488.5H614.257V509.36H628.467V513H610.477ZM634.404 513L645.254 488.5H649.419L660.234 513H656.139L649.069 497.04C648.906 496.737 648.719 496.328 648.509 495.815C648.323 495.302 648.113 494.765 647.879 494.205C647.669 493.622 647.459 493.062 647.249 492.525C647.063 491.965 646.899 491.487 646.759 491.09L647.739 491.055C647.553 491.545 647.354 492.058 647.144 492.595C646.958 493.132 646.759 493.68 646.549 494.24C646.339 494.777 646.129 495.302 645.919 495.815C645.709 496.305 645.511 496.76 645.324 497.18L638.324 513H634.404ZM639.164 507.12L640.599 503.48H653.654L654.704 507.12H639.164ZM667.523 513V488.5H679.493C681.337 488.5 682.877 488.745 684.113 489.235C685.373 489.702 686.318 490.39 686.948 491.3C687.578 492.21 687.893 493.33 687.893 494.66C687.893 495.967 687.485 497.087 686.668 498.02C685.875 498.953 684.72 499.618 683.203 500.015L683.343 499.315C684.417 499.548 685.397 499.945 686.283 500.505C687.17 501.042 687.87 501.753 688.383 502.64C688.92 503.527 689.188 504.577 689.188 505.79C689.188 507.097 688.943 508.217 688.453 509.15C687.987 510.06 687.333 510.795 686.493 511.355C685.653 511.915 684.685 512.335 683.588 512.615C682.515 512.872 681.372 513 680.158 513H667.523ZM671.303 509.36H680.158C681.208 509.36 682.118 509.232 682.888 508.975C683.658 508.695 684.253 508.287 684.673 507.75C685.117 507.19 685.338 506.513 685.338 505.72C685.338 504.88 685.082 504.203 684.568 503.69C684.055 503.177 683.39 502.803 682.573 502.57C681.757 502.313 680.893 502.185 679.983 502.185H671.303V509.36ZM671.303 498.545H679.808C680.578 498.545 681.29 498.417 681.943 498.16C682.597 497.88 683.11 497.495 683.483 497.005C683.857 496.515 684.043 495.943 684.043 495.29C684.043 494.217 683.612 493.423 682.748 492.91C681.885 492.397 680.765 492.14 679.388 492.14H671.303V498.545ZM706.668 513.35C705.105 513.35 703.658 513.175 702.328 512.825C700.998 512.475 699.785 511.95 698.688 511.25C697.591 510.55 696.611 509.663 695.748 508.59L698.198 505.51C699.551 507.12 700.893 508.263 702.223 508.94C703.576 509.617 705.116 509.955 706.843 509.955C707.916 509.955 708.92 509.815 709.853 509.535C710.81 509.232 711.58 508.812 712.163 508.275C712.77 507.715 713.073 507.05 713.073 506.28C713.073 505.767 712.921 505.323 712.618 504.95C712.338 504.577 711.953 504.262 711.463 504.005C710.996 503.725 710.448 503.492 709.818 503.305C709.211 503.118 708.581 502.967 707.928 502.85C707.275 502.71 706.633 502.593 706.003 502.5C704.58 502.267 703.308 501.963 702.188 501.59C701.068 501.193 700.111 500.703 699.318 500.12C698.548 499.513 697.965 498.813 697.568 498.02C697.171 497.203 696.973 496.27 696.973 495.22C696.973 494.147 697.218 493.178 697.708 492.315C698.198 491.428 698.886 490.682 699.773 490.075C700.66 489.445 701.698 488.967 702.888 488.64C704.078 488.313 705.373 488.15 706.773 488.15C708.243 488.15 709.585 488.313 710.798 488.64C712.011 488.967 713.096 489.457 714.053 490.11C715.01 490.74 715.803 491.522 716.433 492.455L713.843 495.15C713.283 494.38 712.63 493.727 711.883 493.19C711.136 492.653 710.32 492.245 709.433 491.965C708.57 491.685 707.648 491.545 706.668 491.545C705.548 491.545 704.556 491.685 703.693 491.965C702.853 492.245 702.176 492.642 701.663 493.155C701.173 493.645 700.928 494.24 700.928 494.94C700.928 495.5 701.068 496.002 701.348 496.445C701.651 496.865 702.071 497.227 702.608 497.53C703.145 497.833 703.81 498.09 704.603 498.3C705.396 498.51 706.306 498.697 707.333 498.86C708.686 499.07 709.946 499.35 711.113 499.7C712.303 500.027 713.341 500.447 714.228 500.96C715.115 501.473 715.803 502.103 716.293 502.85C716.783 503.597 717.028 504.507 717.028 505.58C717.028 507.143 716.596 508.508 715.733 509.675C714.893 510.842 713.703 511.752 712.163 512.405C710.623 513.035 708.791 513.35 706.668 513.35Z" fill="black"/>
<path d="M770.625 547.64L774.555 523.095L777.914 523.057L773.985 547.602L770.625 547.64ZM756.562 542.02L756.527 538.835L779.731 538.578L779.766 541.763L756.562 542.02ZM759.951 547.758L763.88 523.213L767.24 523.176L763.311 547.721L759.951 547.758ZM757.784 532.206L757.749 529.021L780.918 528.764L780.953 531.949L757.784 532.206ZM793.838 547.382L785.063 522.978L789.158 522.933L794.326 537.681C794.494 538.123 794.652 538.623 794.798 539.181C794.967 539.716 795.125 540.263 795.271 540.821C795.44 541.379 795.586 541.914 795.709 542.426C795.831 542.915 795.952 543.357 796.073 543.752L794.778 543.732C795.048 542.819 795.296 541.999 795.521 541.273C795.77 540.547 796.007 539.891 796.234 539.305C796.484 538.696 796.711 538.133 796.916 537.618L801.244 527.034L804.779 526.995L809.234 537.446C809.521 538.073 809.785 538.723 810.026 539.397C810.29 540.048 810.542 540.698 810.783 541.349C811.023 542 811.217 542.628 811.363 543.233L810.176 543.491C810.287 542.976 810.387 542.52 810.476 542.123C810.565 541.725 810.654 541.339 810.743 540.965C810.856 540.59 810.969 540.227 811.081 539.876C811.194 539.501 811.318 539.103 811.453 538.682C811.589 538.26 811.735 537.803 811.893 537.312L817.016 522.624L821.076 522.579L812.247 547.178L809.622 547.207L802.621 531.324L803.148 531.458L796.568 547.352L793.838 547.382ZM836.887 547.255C834.694 547.279 832.741 546.904 831.029 546.13C829.317 545.332 827.975 544.239 827.003 542.849C826.03 541.437 825.534 539.832 825.515 538.036C825.498 536.542 825.763 535.198 826.31 534.002C826.857 532.782 827.627 531.747 828.621 530.896C829.615 530.021 830.774 529.343 832.099 528.862C833.423 528.381 834.844 528.132 836.361 528.115C837.737 528.1 839.035 528.307 840.253 528.737C841.471 529.167 842.539 529.773 843.458 530.556C844.377 531.339 845.087 532.277 845.589 533.368C846.091 534.436 846.337 535.623 846.329 536.93L846.313 538.68L828.569 538.877L827.732 536.016L843.166 535.845L842.646 536.236L842.636 535.396C842.534 534.603 842.177 533.907 841.563 533.307C840.95 532.708 840.187 532.249 839.273 531.933C838.383 531.593 837.424 531.428 836.397 531.44C834.951 531.456 833.67 531.691 832.555 532.147C831.44 532.58 830.572 533.266 829.953 534.206C829.356 535.123 829.066 536.304 829.082 537.751C829.096 539.011 829.446 540.115 830.133 541.065C830.843 541.99 831.82 542.703 833.062 543.202C834.328 543.702 835.765 543.942 837.375 543.924C838.845 543.908 840.091 543.696 841.113 543.288C842.159 542.856 843.086 542.333 843.896 541.717L845.606 544.358C844.981 544.879 844.193 545.354 843.241 545.785C842.312 546.215 841.29 546.565 840.173 546.834C839.079 547.102 837.984 547.243 836.887 547.255ZM854.987 546.704L854.717 522.206L866.686 522.073C868.529 522.053 870.072 522.281 871.314 522.757C872.579 523.21 873.532 523.887 874.172 524.79C874.812 525.693 875.139 526.81 875.154 528.14C875.168 529.446 874.772 530.571 873.966 531.513C873.183 532.455 872.035 533.133 870.523 533.546L870.655 532.845C871.731 533.066 872.716 533.452 873.608 534.002C874.501 534.529 875.209 535.233 875.732 536.114C876.278 536.995 876.558 538.041 876.571 539.255C876.586 540.561 876.353 541.684 875.874 542.623C875.417 543.538 874.772 544.28 873.938 544.849C873.104 545.419 872.141 545.849 871.047 546.141C869.977 546.41 868.835 546.551 867.622 546.564L854.987 546.704ZM858.727 543.023L867.581 542.925C868.631 542.913 869.54 542.775 870.307 542.509C871.074 542.221 871.664 541.806 872.078 541.265C872.516 540.7 872.73 540.021 872.721 539.227C872.712 538.387 872.448 537.714 871.929 537.206C871.41 536.698 870.741 536.333 869.921 536.108C869.102 535.861 868.237 535.742 867.327 535.752L858.648 535.848L858.727 543.023ZM858.608 532.208L867.112 532.114C867.882 532.106 868.592 531.969 869.243 531.706C869.893 531.418 870.402 531.028 870.77 530.534C871.138 530.039 871.318 529.466 871.311 528.812C871.299 527.739 870.859 526.951 869.99 526.447C869.121 525.943 867.998 525.699 866.621 525.714L858.537 525.804L858.608 532.208ZM894.134 546.621C891.941 546.645 889.989 546.27 888.277 545.495C886.564 544.698 885.222 543.604 884.25 542.215C883.278 540.802 882.782 539.198 882.762 537.401C882.745 535.908 883.011 534.563 883.557 533.367C884.104 532.147 884.874 531.112 885.868 530.261C886.862 529.387 888.021 528.709 889.346 528.227C890.671 527.746 892.092 527.497 893.608 527.48C894.985 527.465 896.282 527.672 897.5 528.102C898.718 528.532 899.787 529.138 900.706 529.922C901.624 530.705 902.335 531.642 902.837 532.733C903.338 533.801 903.585 534.988 903.576 536.295L903.56 538.046L885.816 538.242L884.98 535.381L900.414 535.21L899.893 535.601L899.884 534.761C899.782 533.969 899.424 533.273 898.811 532.673C898.197 532.073 897.434 531.615 896.52 531.298C895.63 530.958 894.671 530.794 893.645 530.805C892.198 530.821 890.917 531.057 889.802 531.513C888.687 531.945 887.82 532.631 887.2 533.572C886.603 534.488 886.313 535.67 886.329 537.116C886.343 538.376 886.694 539.481 887.381 540.43C888.091 541.356 889.067 542.068 890.309 542.568C891.575 543.067 893.013 543.308 894.623 543.29C896.093 543.274 897.339 543.061 898.361 542.653C899.406 542.222 900.334 541.698 901.144 541.082L902.853 543.724C902.229 544.244 901.441 544.719 900.489 545.15C899.56 545.58 898.537 545.93 897.42 546.199C896.326 546.468 895.231 546.608 894.134 546.621ZM912.41 546.068L912.124 520.169L915.729 520.13L916.015 546.028L912.41 546.068ZM926.945 545.907L926.742 527.533L930.347 527.493L930.55 545.867L926.945 545.907ZM928.445 523.244C927.675 523.252 927.078 523.061 926.654 522.669C926.229 522.277 926.013 521.719 926.005 520.996C925.998 520.319 926.202 519.768 926.617 519.344C927.056 518.919 927.648 518.702 928.395 518.694C929.165 518.686 929.762 518.877 930.186 519.269C930.611 519.661 930.827 520.219 930.835 520.942C930.842 521.619 930.627 522.17 930.188 522.594C929.773 523.019 929.192 523.235 928.445 523.244ZM950.357 545.997C948.163 546.022 946.211 545.647 944.499 544.872C942.787 544.074 941.444 542.981 940.472 541.592C939.5 540.179 939.004 538.574 938.984 536.778C938.968 535.285 939.233 533.94 939.78 532.744C940.326 531.524 941.096 530.489 942.09 529.638C943.084 528.764 944.243 528.086 945.568 527.604C946.893 527.123 948.314 526.874 949.83 526.857C951.207 526.842 952.504 527.049 953.722 527.479C954.941 527.909 956.009 528.515 956.928 529.298C957.846 530.082 958.557 531.019 959.059 532.11C959.561 533.178 959.807 534.365 959.798 535.672L959.782 537.422L942.039 537.619L941.202 534.758L956.636 534.587L956.115 534.978L956.106 534.138C956.004 533.346 955.646 532.65 955.033 532.05C954.42 531.45 953.656 530.991 952.743 530.675C951.852 530.335 950.894 530.17 949.867 530.182C948.42 530.198 947.14 530.434 946.025 530.889C944.909 531.322 944.042 532.008 943.422 532.948C942.826 533.865 942.535 535.047 942.551 536.493C942.565 537.753 942.916 538.858 943.603 539.807C944.313 540.732 945.289 541.445 946.532 541.944C947.797 542.444 949.235 542.685 950.845 542.667C952.315 542.65 953.561 542.438 954.583 542.03C955.628 541.599 956.556 541.075 957.366 540.459L959.075 543.1C958.451 543.621 957.663 544.096 956.711 544.527C955.782 544.957 954.759 545.307 953.642 545.576C952.548 545.845 951.453 545.985 950.357 545.997ZM974.31 545.382L964.833 527.111L968.927 527.065L976.265 541.755L975.393 542.08L982.786 526.912L986.671 526.869L977.285 545.349L974.31 545.382ZM1002.65 545.418C1000.46 545.442 998.502 545.067 996.791 544.292C995.078 543.495 993.736 542.401 992.764 541.012C991.792 539.599 991.296 537.995 991.276 536.198C991.259 534.705 991.525 533.36 992.071 532.164C992.618 530.945 993.388 529.909 994.382 529.058C995.376 528.184 996.535 527.506 997.86 527.025C999.185 526.543 1000.61 526.294 1002.12 526.277C1003.5 526.262 1004.8 526.469 1006.01 526.899C1007.23 527.329 1008.3 527.936 1009.22 528.719C1010.14 529.502 1010.85 530.439 1011.35 531.53C1011.85 532.598 1012.1 533.785 1012.09 535.092L1012.07 536.843L994.33 537.039L993.494 534.178L1008.93 534.007L1008.41 534.398L1008.4 533.558C1008.3 532.766 1007.94 532.07 1007.32 531.47C1006.71 530.87 1005.95 530.412 1005.03 530.095C1004.14 529.755 1003.19 529.591 1002.16 529.602C1000.71 529.618 999.431 529.854 998.316 530.31C997.201 530.742 996.333 531.428 995.714 532.369C995.117 533.285 994.827 534.467 994.843 535.914C994.857 537.173 995.207 538.278 995.895 539.227C996.605 540.153 997.581 540.865 998.823 541.365C1000.09 541.864 1001.53 542.105 1003.14 542.087C1004.61 542.071 1005.85 541.859 1006.87 541.451C1007.92 541.019 1008.85 540.495 1009.66 539.88L1011.37 542.521C1010.74 543.041 1009.95 543.517 1009 543.947C1008.07 544.377 1007.05 544.727 1005.93 544.996C1004.84 545.265 1003.74 545.405 1002.65 545.418Z" fill="#040404"/>
<defs>
<linearGradient id="paint0_linear_0_1" x1="348.398" y1="516.424" x2="1536.61" y2="516.37" gradientUnits="userSpaceOnUse">
<stop stop-color="#1A2FEA"/>
<stop offset="0.209375" stop-color="#BA16C8" stop-opacity="0.854167"/>
<stop offset="0.256824" stop-color="#AF16D5" stop-opacity="0.74086"/>
<stop offset="0.37433" stop-color="#A217E4" stop-opacity="0.609375"/>
<stop offset="0.599069" stop-color="#28CD39" stop-opacity="0.229167"/>
<stop offset="0.911458" stop-color="#5BEDCA" stop-opacity="0.0885417"/>
<stop offset="1" stop-opacity="0"/>
</linearGradient>
</defs>
</svg>
